<?xml version="1.0" encoding="UTF-8" standalone="no"?>
<svg
   xmlns:dc="http://purl.org/dc/elements/1.1/"
   xmlns:cc="http://creativecommons.org/ns#"
   xmlns:rdf="http://www.w3.org/1999/02/22-rdf-syntax-ns#"
   xmlns:svg="http://www.w3.org/2000/svg"
   xmlns="http://www.w3.org/2000/svg"
   xmlns:sodipodi="http://sodipodi.sourceforge.net/DTD/sodipodi-0.dtd"
   xmlns:inkscape="http://www.inkscape.org/namespaces/inkscape"
   viewBox="0 0 475.85895 216.43698"
   version="1.1"
   id="svg311"
   sodipodi:docname="img-dashboard-3.svg"
   width="475.85895"
   height="216.43698"
   inkscape:version="0.92.4 (5da689c313, 2019-01-14)">
  <metadata
     id="metadata315">
    <rdf:RDF>
      <cc:Work
         rdf:about="">
        <dc:format>image/svg+xml</dc:format>
        <dc:type
           rdf:resource="http://purl.org/dc/dcmitype/StillImage" />
      </cc:Work>
    </rdf:RDF>
  </metadata>
  <sodipodi:namedview
     pagecolor="#ffffff"
     bordercolor="#666666"
     borderopacity="1"
     objecttolerance="10"
     gridtolerance="10"
     guidetolerance="10"
     inkscape:pageopacity="0"
     inkscape:pageshadow="2"
     inkscape:window-width="1920"
     inkscape:window-height="1027"
     id="namedview313"
     showgrid="false"
     inkscape:zoom="1.3350176"
     inkscape:cx="380.51784"
     inkscape:cy="84.278169"
     inkscape:window-x="1358"
     inkscape:window-y="-8"
     inkscape:window-maximized="1"
     inkscape:current-layer="svg311" />
  <defs
     id="defs26">
    <clipPath
       id="freepik--clip-path--inject-1311">
      <path
         d="m 307.85,412.39 c -0.74,5.69 -1.58,11.85 -2.54,18.54 h -85.84 l 0.41,-11.06 c -5.13,1.24 -15.1,0.48 -15.1,0.48 V 404 c 6.06,-3.43 7,-2.47 7,-2.47 0,0 0.31,-39.9 3.94,-49.86 a 20.09,20.09 0 0 1 7.1,-9.34 v 0 a 24.31,24.31 0 0 1 2.71,-1.75 l 0.13,-0.08 c 1,-0.53 2.21,-1.09 3.59,-1.67 l 0.38,-0.15 c 13.44,-5.49 42.77,-11.86 70.1,-0.18 1.91,0.82 17.51,8.27 18.84,19 0.72,6.17 -3.46,36.71 -10.72,54.89 z"
         style="fill:#a19dff;stroke:#263238;stroke-linecap:round;stroke-linejoin:round"
         id="path2"
         inkscape:connector-curvature="0" />
    </clipPath>
    <clipPath
       id="freepik--clip-path-2--inject-1311">
      <path
         d="m 239.14,407.37 a 3.57,3.57 0 0 1 4.1,-1 3.67,3.67 0 0 1 4.06,-0.28 c 2,1.32 6,16.32 2.11,19.13 -1.12,0.8 -4.25,1.55 -5.21,-0.06 a 2.37,2.37 0 0 1 -3.65,-1.15 c -1.12,-2.61 0.93,-5.82 -2,-13.39 a 3.19,3.19 0 0 1 0.59,-3.25 z"
         style="fill:#a19dff;stroke:#263238;stroke-linecap:round;stroke-linejoin:round"
         id="path5"
         inkscape:connector-curvature="0" />
    </clipPath>
    <clipPath
       id="freepik--clip-path-3--inject-1311">
      <path
         d="M 274.42,333.27 273,313.12 252.14,318 251,334.13 c -1.31,0.16 -2.56,0.35 -3.79,0.53 l 5.1,12.23 10,1.31 15.94,-14.69 c -1.25,-0.1 -2.57,-0.18 -3.83,-0.24 z"
         style="fill:#ffffff;stroke:#263238;stroke-linecap:round;stroke-linejoin:round"
         id="path8"
         inkscape:connector-curvature="0" />
    </clipPath>
    <clipPath
       id="freepik--clip-path-4--inject-1311">
      <path
         d="m 250,333.19 7.7,13.86 18.49,-14.59 5.69,0.8 -12,21.15 a 1.63,1.63 0 0 1 -2.28,0.57 l -10.23,-6.46 -8,4.88 a 1.63,1.63 0 0 1 -2.47,-1.21 l -2,-18.06 z"
         style="fill:#a19dff;stroke:#263238;stroke-linecap:round;stroke-linejoin:round"
         id="path11"
         inkscape:connector-curvature="0" />
    </clipPath>
    <clipPath
       id="freepik--clip-path-5--inject-1311">
      <path
         d="m 376.36,313 c 0,0 -1.37,17 7.38,31.55 0,0 -11.79,3.85 -24.09,0.19 v 0 a 40.46,40.46 0 0 0 -0.74,-13.48 l -0.42,-1.85 8.94,-7.73 z"
         style="fill:#ffffff;stroke:#263238;stroke-linecap:round;stroke-linejoin:round"
         id="path14"
         inkscape:connector-curvature="0" />
    </clipPath>
    <clipPath
       id="freepik--clip-path-6--inject-1311">
      <path
         d="m 404.14,422.46 q -0.66,4.08 -1.41,8.47 h -68.58 c -0.11,-0.92 0.54,-2.77 1.16,-6 -7.64,2.59 -21,-1.43 -21,-1.43 1.66,-4.37 0.51,-15.47 0.51,-15.47 l 7.78,-1.65 c 0,0 3.23,-33.82 5.69,-43.51 2.61,-10.28 16.89,-21.5 64.92,-18.19 v 0 c 0,0 22.16,-0.42 25.6,14.27 3.24,13.71 -13.75,62.88 -14.67,63.51 z"
         style="fill:#a19dff;stroke:#263238;stroke-linecap:round;stroke-linejoin:round"
         id="path17"
         inkscape:connector-curvature="0" />
    </clipPath>
    <clipPath
       id="freepik--clip-path-7--inject-1311">
      <path
         d="m 378.84,407.84 c 0,0 2.24,-4.94 8.94,-2.5 0,0 6.33,2.18 8.23,8.69 1.9,6.51 -0.48,12.32 -5.1,12.56 -4.62,0.24 -5.46,-0.12 -4.68,-1.54 a 11.62,11.62 0 0 0 0.36,-10.12 c -2.87,-6.87 -7.75,-7.09 -7.75,-7.09 z"
         style="fill:#a19dff;stroke:#263238;stroke-linecap:round;stroke-linejoin:round"
         id="path20"
         inkscape:connector-curvature="0" />
    </clipPath>
    <clipPath
       id="freepik--clip-path-8--inject-1311">
      <path
         d="M 206,408 H 101.16 a 5,5 0 0 1 -4.78,-4.26 l -9.1,-74.1 A 3.68,3.68 0 0 1 91,325.41 h 104.88 a 5,5 0 0 1 4.78,4.26 l 9.1,74.1 A 3.69,3.69 0 0 1 206,408 Z"
         style="fill:#263238;stroke:#263238;stroke-linecap:round;stroke-linejoin:round"
         id="path23"
         inkscape:connector-curvature="0" />
    </clipPath>
  </defs>
  <g
     id="freepik--character-1--inject-1311"
     transform="matrix(-1.191627,0,0,1.1920402,521.84385,-297.7799)"
     style="stroke-width:0.83904326">
    <path
       d="m 152.08,414.24 c 0,0 -5.24,9 -3.18,9.35 2.06,0.35 6.39,-7.48 6.39,-7.48 l 11.85,-3.11 -8.93,-0.92 z"
       style="fill:#ffffff;stroke:#263238;stroke-width:0.83904326;stroke-linecap:round;stroke-linejoin:round"
       id="path28"
       inkscape:connector-curvature="0" />
    <path
       d="m 152.08,414.24 c 0,0 -5.24,9 -3.18,9.35 2.06,0.35 6.39,-7.48 6.39,-7.48 l 11.85,-3.11 -8.93,-0.92 z"
       style="opacity:0.3;stroke:#263238;stroke-width:0.83904326;stroke-linecap:round;stroke-linejoin:round"
       id="path30"
       inkscape:connector-curvature="0" />
    <path
       d="m 156.07,408.08 c 0,0 -7.34,-1.74 -9.36,1.7 -2.02,3.44 -8,13.65 -5.74,14.81 2.26,1.16 4.17,-2.6 4.17,-2.6 z"
       style="fill:#ffffff;stroke:#263238;stroke-width:0.83904326;stroke-linecap:round;stroke-linejoin:round"
       id="path32"
       inkscape:connector-curvature="0" />
    <path
       d="m 186.09,418.54 a 33.39,33.39 0 0 1 -15,1.58 l -8.35,2.78 c 0,0 -7.34,3.61 -10.76,1.79 -3.42,-1.82 8.7,-5.84 8.7,-5.84 0,0 8.15,-3.53 5.72,-4.38 -2.43,-0.85 -11.63,-0.68 -13.43,0.7 -1.8,1.38 -6.55,10.37 -10,9.85 -3.45,-0.52 1.44,-5.4 2.67,-7.28 1.23,-1.88 4,-9.38 9.56,-9.7 5.56,-0.32 24.37,0.65 24.37,0.65 l 22.09,-2.36 5.21,12.57 z"
       style="fill:#ffffff;stroke:#263238;stroke-width:0.83904326;stroke-linecap:round;stroke-linejoin:round"
       id="path34"
       inkscape:connector-curvature="0" />
    <path
       d="m 197.62,421.65 a 3.54,3.54 0 0 0 4.21,-0.06 3.68,3.68 0 0 0 4,-0.74 c 1.61,-1.77 1.75,-17.3 -2.71,-19.05 -1.29,-0.5 -4.51,-0.45 -5,1.35 a 2.36,2.36 0 0 0 -3.24,2 c -0.44,2.8 2.34,5.41 1.41,13.46 a 3.17,3.17 0 0 0 1.33,3.04 z"
       style="fill:#a19dff;stroke:#263238;stroke-width:0.83904326;stroke-linecap:round;stroke-linejoin:round"
       id="path36"
       inkscape:connector-curvature="0" />
    <path
       d="m 197.62,421.65 a 3.54,3.54 0 0 0 4.21,-0.06 3.68,3.68 0 0 0 4,-0.74 c 1.61,-1.77 1.75,-17.3 -2.71,-19.05 -1.29,-0.5 -4.51,-0.45 -5,1.35 a 2.36,2.36 0 0 0 -3.24,2 c -0.44,2.8 2.34,5.41 1.41,13.46 a 3.17,3.17 0 0 0 1.33,3.04 z"
       style="opacity:0.3;stroke:#263238;stroke-width:0.83904326;stroke-linecap:round;stroke-linejoin:round"
       id="path38"
       inkscape:connector-curvature="0" />
    <path
       d="m 202.72,418 a 30,30 0 0 0 -2.64,-12.27"
       style="fill:none;stroke:#263238;stroke-width:0.83904326;stroke-linecap:round;stroke-linejoin:round"
       id="path40"
       inkscape:connector-curvature="0" />
    <path
       d="m 307.85,412.39 c -0.74,5.69 -1.58,11.85 -2.54,18.54 h -85.84 l 0.41,-11.06 c -5.13,1.24 -15.1,0.48 -15.1,0.48 V 404 c 6.06,-3.43 7,-2.47 7,-2.47 0,0 0.31,-39.9 3.94,-49.86 a 20.09,20.09 0 0 1 7.1,-9.34 v 0 a 24.31,24.31 0 0 1 2.71,-1.75 l 0.13,-0.08 c 1,-0.53 2.21,-1.09 3.59,-1.67 l 0.38,-0.15 c 13.44,-5.49 42.77,-11.86 70.1,-0.18 1.91,0.82 17.51,8.27 18.84,19 0.72,6.17 -3.46,36.71 -10.72,54.89 z"
       style="fill:#a19dff;stroke-width:0.83904326"
       id="path42"
       inkscape:connector-curvature="0" />
    <g
       clip-path="url(#freepik--clip-path--inject-1311)"
       id="g50"
       style="stroke-width:0.83904326">
      <path
         d="m 294.25,363.2 -8.56,39.73 c -1.33,-1.05 -5.16,-1.12 -10,-0.66 a 15.66,15.66 0 0 0 2.59,-3.88 c 12.91,-28 15.72,-34.63 15.97,-35.19 z"
         style="opacity:0.2;stroke-width:0.83904326"
         id="path44"
         inkscape:connector-curvature="0" />
      <path
         d="m 309.89,406.85 a 176,176 0 0 0 -4.58,24.08 h -85.84 l 0.79,-12.74 c 5.35,-0.76 14.74,-1.54 24.49,-3.27 a 21.76,21.76 0 0 1 0.23,9.31 c 0,0 39.48,4.9 52.73,1.71 3.78,-0.91 7.2,-6.19 10.13,-13.46 0.71,-1.77 1.39,-3.66 2.05,-5.63 z"
         style="opacity:0.2;stroke-width:0.83904326"
         id="path46"
         inkscape:connector-curvature="0" />
      <path
         d="m 212.77,402.28 c 0,0 -1.93,-1.71 -8,1.72 v 16.35 c 0,0 10,-0.35 13.92,-2.48 3.38,2.09 2.78,-36.18 3.38,-56.79 -4.9,1.35 -5.29,10.67 -6.05,19.44 a 175.71,175.71 0 0 1 -3.25,21.76 z"
         style="opacity:0.3;stroke-width:0.83904326"
         id="path48"
         inkscape:connector-curvature="0" />
    </g>
    <path
       d="m 307.85,412.39 c -0.74,5.69 -1.58,11.85 -2.54,18.54 h -85.84 l 0.41,-11.06 c -5.13,1.24 -15.1,0.48 -15.1,0.48 V 404 c 6.06,-3.43 7,-2.47 7,-2.47 0,0 0.31,-39.9 3.94,-49.86 a 20.09,20.09 0 0 1 7.1,-9.34 v 0 a 24.31,24.31 0 0 1 2.71,-1.75 l 0.13,-0.08 c 1,-0.53 2.21,-1.09 3.59,-1.67 l 0.38,-0.15 c 13.44,-5.49 42.77,-11.86 70.1,-0.18 1.91,0.82 17.51,8.27 18.84,19 0.72,6.17 -3.46,36.71 -10.72,54.89 z"
       style="fill:none;stroke:#263238;stroke-width:0.83904326;stroke-linecap:round;stroke-linejoin:round"
       id="path52"
       inkscape:connector-curvature="0" />
    <path
       d="m 318.53,357.53 c 0,0.24 0.06,0.52 0.07,0.83 0.44,7.68 -3.74,36.66 -10.76,54.12 -2.93,7.27 -6.35,12.55 -10.13,13.46 -13.25,3.19 -52.73,-1.71 -52.73,-1.71 a 21.88,21.88 0 0 0 -2.95,-15.7 c 0,0 38.76,-9.48 43.66,-5.6 l 8.58,-39.77"
       style="fill:none;stroke:#263238;stroke-width:0.83904326;stroke-linecap:round;stroke-linejoin:round"
       id="path54"
       inkscape:connector-curvature="0" />
    <path
       d="m 288.39,405.1 a 17.6,17.6 0 0 1 6.87,5.88"
       style="fill:none;stroke:#263238;stroke-width:0.83904326;stroke-linecap:round;stroke-linejoin:round"
       id="path56"
       inkscape:connector-curvature="0" />
    <path
       d="m 189.65,406.52 c 0,0 -3.62,-0.76 -5.09,0.89 -1.47,1.65 -7.77,11.11 -5.64,12.91 2.13,1.8 6.46,-8.09 6.46,-8.09 z"
       style="fill:#ffffff;stroke:#263238;stroke-width:0.83904326;stroke-linecap:round;stroke-linejoin:round"
       id="path58"
       inkscape:connector-curvature="0" />
    <path
       d="m 196.91,406.35 c 0,0 -8,-1.72 -9.83,0.73 -1.83,2.45 -11.92,15.13 -5.62,15.53 l 10,-11.28 z"
       style="fill:#ffffff;stroke:#263238;stroke-width:0.83904326;stroke-linecap:round;stroke-linejoin:round"
       id="path60"
       inkscape:connector-curvature="0" />
    <path
       d="m 215.05,419.83 c 0,0 -8.25,1.8 -11.6,2.46 -3.35,0.66 -9.57,5 -13.25,3.27 -3.68,-1.73 12,-8.1 12,-8.1 l 5.4,-2.17 z"
       style="fill:#bfbfbf;stroke:#263238;stroke-width:0.83904326;stroke-linecap:round;stroke-linejoin:round"
       id="path62"
       inkscape:connector-curvature="0" />
    <path
       d="m 221.73,370.47 c 0.12,-3.13 0.23,-6.26 0.35,-9.39"
       style="fill:none;stroke:#263238;stroke-width:0.83904326;stroke-linecap:round;stroke-linejoin:round"
       id="path64"
       inkscape:connector-curvature="0" />
    <path
       d="m 219.47,430.93 c 1.53,-18.93 2.1,-56.2 2.1,-56.2"
       style="fill:none;stroke:#263238;stroke-width:0.83904326;stroke-linecap:round;stroke-linejoin:round"
       id="path66"
       inkscape:connector-curvature="0" />
    <path
       d="m 245,409.62 h -28.47 c 0,0 -22.08,-6.63 -25.75,-1.48 -3.67,5.15 -11.53,13 -9.32,14.47 2.21,1.47 11.54,-9.19 11.54,-9.19 l 8.1,0.07 c 0,0 -6.87,3 -8.34,4.46 -1.47,1.46 -4.66,5.64 -3,6.38 1.66,0.74 7.12,-4.66 7.12,-4.66 0,0 8.09,-2 10.05,-1 a 27.92,27.92 0 0 0 20.36,2 l 21.71,2.7 z"
       style="fill:#ffffff;stroke:#263238;stroke-width:0.83904326;stroke-linecap:round;stroke-linejoin:round"
       id="path68"
       inkscape:connector-curvature="0" />
    <path
       d="m 291.3,376.93 a 42.14,42.14 0 0 1 -0.09,-13.77"
       style="fill:none;stroke:#263238;stroke-width:0.83904326;stroke-linecap:round;stroke-linejoin:round"
       id="path70"
       inkscape:connector-curvature="0" />
    <path
       d="m 297.75,353.08 c 0,0 13.8,-18.18 20.78,4.45"
       style="fill:none;stroke:#263238;stroke-width:0.83904326;stroke-linecap:round;stroke-linejoin:round"
       id="path72"
       inkscape:connector-curvature="0" />
    <path
       d="m 239.14,407.37 a 3.57,3.57 0 0 1 4.1,-1 3.67,3.67 0 0 1 4.06,-0.28 c 2,1.32 6,16.32 2.11,19.13 -1.12,0.8 -4.25,1.55 -5.21,-0.06 a 2.37,2.37 0 0 1 -3.65,-1.15 c -1.12,-2.61 0.93,-5.82 -2,-13.39 a 3.19,3.19 0 0 1 0.59,-3.25 z"
       style="fill:#a19dff;stroke-width:0.83904326"
       id="path74"
       inkscape:connector-curvature="0" />
    <g
       clip-path="url(#freepik--clip-path-2--inject-1311)"
       id="g78"
       style="stroke-width:0.83904326">
      <path
         d="m 239.14,407.37 a 3.57,3.57 0 0 1 4.1,-1 3.67,3.67 0 0 1 4.06,-0.28 c 2,1.32 6,16.32 2.11,19.13 -1.12,0.8 -4.25,1.55 -5.21,-0.06 a 2.37,2.37 0 0 1 -3.65,-1.15 c -1.12,-2.61 0.93,-5.82 -2,-13.39 a 3.19,3.19 0 0 1 0.59,-3.25 z"
         style="opacity:0.3;stroke-width:0.83904326"
         id="path76"
         inkscape:connector-curvature="0" />
    </g>
    <path
       d="m 239.14,407.37 a 3.57,3.57 0 0 1 4.1,-1 3.67,3.67 0 0 1 4.06,-0.28 c 2,1.32 6,16.32 2.11,19.13 -1.12,0.8 -4.25,1.55 -5.21,-0.06 a 2.37,2.37 0 0 1 -3.65,-1.15 c -1.12,-2.61 0.93,-5.82 -2,-13.39 a 3.19,3.19 0 0 1 0.59,-3.25 z"
       style="fill:none;stroke:#263238;stroke-width:0.83904326;stroke-linecap:round;stroke-linejoin:round"
       id="path80"
       inkscape:connector-curvature="0" />
    <path
       d="m 245.46,415.16 a 25.16,25.16 0 0 1 0.08,7"
       style="fill:none;stroke:#263238;stroke-width:0.83904326;stroke-linecap:round;stroke-linejoin:round"
       id="path82"
       inkscape:connector-curvature="0" />
    <path
       d="m 258,370.25 a 1.95,1.95 0 1 1 -1.84,-2.05 2,2 0 0 1 1.84,2.05 z"
       style="fill:#ffffff;stroke:#263238;stroke-width:0.83904326;stroke-linecap:round;stroke-linejoin:round"
       id="path84"
       inkscape:connector-curvature="0" />
    <path
       d="m 256.56,400.45 a 1.94,1.94 0 1 1 -1.83,-2.06 1.95,1.95 0 0 1 1.83,2.06 z"
       style="fill:#ffffff;stroke:#263238;stroke-width:0.83904326;stroke-linecap:round;stroke-linejoin:round"
       id="path86"
       inkscape:connector-curvature="0" />
    <path
       d="M 274.42,333.27 273,313.12 252.14,318 251,334.13 c -1.31,0.16 -2.56,0.35 -3.79,0.53 l 5.1,12.23 10,1.31 15.94,-14.69 c -1.25,-0.1 -2.57,-0.18 -3.83,-0.24 z"
       style="fill:#ffffff;stroke-width:0.83904326"
       id="path88"
       inkscape:connector-curvature="0" />
    <g
       clip-path="url(#freepik--clip-path-3--inject-1311)"
       id="g92"
       style="stroke-width:0.83904326">
      <path
         d="m 251.83,325.08 c 0.14,14.34 16.89,9.94 21.53,-4.38 l -0.37,-7.58 -20.85,4.88 z"
         style="fill:#263238;stroke-width:0.83904326"
         id="path90"
         inkscape:connector-curvature="0" />
    </g>
    <path
       d="M 274.42,333.27 273,313.12 252.14,318 251,334.13 c -1.31,0.16 -2.56,0.35 -3.79,0.53 l 5.1,12.23 10,1.31 15.94,-14.69 c -1.25,-0.1 -2.57,-0.18 -3.83,-0.24 z"
       style="fill:none;stroke:#263238;stroke-width:0.83904326;stroke-linecap:round;stroke-linejoin:round"
       id="path94"
       inkscape:connector-curvature="0" />
    <path
       d="m 239.06,296.11 c 0,0 -7.62,-13.18 -8.74,-20.13 -3.49,-21.47 12,-14.23 12,-14.23 0,0 11,-9.81 24.61,-8.09 13.61,1.72 17.25,7.53 26.44,11.1 0,0 -6.9,35 -15.73,42.86 -8.83,7.86 -38.58,-11.51 -38.58,-11.51 z"
       style="fill:#263238;stroke:#263238;stroke-width:0.83904326;stroke-linecap:round;stroke-linejoin:round"
       id="path96"
       inkscape:connector-curvature="0" />
    <path
       d="m 243.07,264.94 c 0,0 -3.43,-8.34 5.27,-14.71"
       style="fill:none;stroke:#263238;stroke-width:0.83904326;stroke-linecap:round;stroke-linejoin:round"
       id="path98"
       inkscape:connector-curvature="0" />
    <path
       d="m 258.05,259.93 c 10.19,-4.5 14.74,3 26.11,5"
       style="fill:none;stroke:#bfbfbf;stroke-width:0.83904326;stroke-miterlimit:10"
       id="path100"
       inkscape:connector-curvature="0" />
    <path
       d="m 250.18,264.94 a 13,13 0 0 1 3.31,-2.95"
       style="fill:none;stroke:#bfbfbf;stroke-width:0.83904326;stroke-miterlimit:10"
       id="path102"
       inkscape:connector-curvature="0" />
    <path
       d="m 260.64,268.21 c 0,0 4.41,-4.23 13.16,1.27 a 22.84,22.84 0 0 0 8.73,3.44"
       style="fill:none;stroke:#bfbfbf;stroke-width:0.83904326;stroke-miterlimit:10"
       id="path104"
       inkscape:connector-curvature="0" />
    <path
       d="m 274.12,277.37 c -12.68,0.33 -25.78,-5.4 -25.78,-5.4 -11.82,7.13 -10.06,18.72 -10.06,18.72 2.7,27.7 6.35,35.08 19.29,35.08 12.94,0 23.46,-14 24.31,-33.95 -4.88,0.23 -7.76,-14.45 -7.76,-14.45 z"
       style="fill:#ffffff;stroke:#263238;stroke-width:0.83904326;stroke-linecap:round;stroke-linejoin:round"
       id="path106"
       inkscape:connector-curvature="0" />
    <path
       d="m 280.79,290.69 a 3.35,3.35 0 0 1 2.6,-1.47 c 2.3,0 4,3 3.19,6.75 -0.81,3.75 -1.87,6.74 -4.17,6.74 a 2.59,2.59 0 0 1 -2.36,-1.76"
       style="fill:#ffffff;stroke:#263238;stroke-width:0.83904326;stroke-linecap:round;stroke-linejoin:round"
       id="path108"
       inkscape:connector-curvature="0" />
    <path
       d="m 255.58,304.29 c 0,0 1.55,2.12 -1.42,3.71 -2.97,1.59 -5.33,1.56 -6.09,-0.26 -0.76,-1.82 2.54,-17 2.54,-17"
       style="fill:none;stroke:#263238;stroke-width:0.83904326;stroke-linecap:round;stroke-linejoin:round"
       id="path110"
       inkscape:connector-curvature="0" />
    <path
       d="m 250.11,293.17 c -1.6,-0.81 -8,-3.61 -14.08,0.21 l 0.39,5.88 c 0,0 2.24,1.23 7.38,1.23 a 20.65,20.65 0 0 0 5,-0.52"
       style="fill:none;stroke:#263238;stroke-width:0.83904326;stroke-linecap:round;stroke-linejoin:round"
       id="path112"
       inkscape:connector-curvature="0" />
    <path
       d="m 255.42,293.38 1.86,6.13 c 0,0 0.76,1 5.91,1 5.15,0 6.84,-1.23 6.84,-1.23 l -0.15,-5.88 c 0,0 -7.47,-4.4 -14.46,-0.02 z"
       style="fill:none;stroke:#263238;stroke-width:0.83904326;stroke-linecap:round;stroke-linejoin:round"
       id="path114"
       inkscape:connector-curvature="0" />
    <line
       x1="250.52"
       y1="293.38"
       x2="255.42"
       y2="293.38"
       style="fill:none;stroke:#263238;stroke-width:0.83904326;stroke-linecap:round;stroke-linejoin:round"
       id="line116" />
    <path
       d="m 251.56,313.56 a 13.44,13.44 0 0 0 8.15,-0.25 11.3,11.3 0 0 0 5.07,-3.82"
       style="fill:none;stroke:#263238;stroke-width:0.83904326;stroke-linecap:round;stroke-linejoin:round"
       id="path118"
       inkscape:connector-curvature="0" />
    <path
       d="m 259.71,287.58 c 6.43,-2.65 9.27,0.53 9.27,0.53"
       style="fill:none;stroke:#263238;stroke-width:0.83904326;stroke-linecap:round;stroke-linejoin:round"
       id="path120"
       inkscape:connector-curvature="0" />
    <path
       d="m 242.74,287.32 a 6.51,6.51 0 0 1 6.88,0.79"
       style="fill:none;stroke:#263238;stroke-width:0.83904326;stroke-linecap:round;stroke-linejoin:round"
       id="path122"
       inkscape:connector-curvature="0" />
    <path
       d="m 262.27,292.05 c 0.6,0 1,1 1,2.17 0,1.17 -0.5,2.16 -1.08,2.16 -0.58,0 -1,-1 -1,-2.16 0,-1.16 0.49,-2.17 1.08,-2.17 z"
       style="fill:#263238;stroke-width:0.83904326"
       id="path124"
       inkscape:connector-curvature="0" />
    <path
       d="m 246.3,291.78 c 0.59,0 1,1 1,2.17 0,1.17 -0.5,2.16 -1.08,2.16 -0.58,0 -1,-1 -1,-2.16 0,-1.16 0.5,-2.17 1.08,-2.17 z"
       style="fill:#263238;stroke-width:0.83904326"
       id="path126"
       inkscape:connector-curvature="0" />
    <path
       d="m 235.64,280.74 a 16.35,16.35 0 0 0 1,3.44"
       style="fill:none;stroke:#bfbfbf;stroke-width:0.83904326;stroke-miterlimit:10"
       id="path128"
       inkscape:connector-curvature="0" />
    <path
       d="m 243.31,267.53 c -6.32,-1.7 -8.82,2.1 -8.35,8.1"
       style="fill:none;stroke:#bfbfbf;stroke-width:0.83904326;stroke-miterlimit:10"
       id="path130"
       inkscape:connector-curvature="0" />
    <path
       d="m 250,333.19 7.7,13.86 18.49,-14.59 5.69,0.8 -12,21.15 a 1.63,1.63 0 0 1 -2.28,0.57 l -10.23,-6.46 -8,4.88 a 1.63,1.63 0 0 1 -2.47,-1.21 l -2,-18.06 z"
       style="fill:#a19dff;stroke-width:0.83904326"
       id="path132"
       inkscape:connector-curvature="0" />
    <g
       clip-path="url(#freepik--clip-path-4--inject-1311)"
       id="g136"
       style="stroke-width:0.83904326">
      <path
         d="m 249.32,333.1 8.38,13.95 18.82,-14.85 5.66,0.9 -12.27,21.31 a 1.63,1.63 0 0 1 -2.28,0.57 l -10.23,-6.46 -8,4.88 a 1.63,1.63 0 0 1 -2.47,-1.21 l -2,-18.06 z"
         style="opacity:0.3;stroke-width:0.83904326"
         id="path134"
         inkscape:connector-curvature="0" />
    </g>
    <path
       d="m 250,333.19 7.7,13.86 18.49,-14.59 5.69,0.8 -12,21.15 a 1.63,1.63 0 0 1 -2.28,0.57 l -10.23,-6.46 -8,4.88 a 1.63,1.63 0 0 1 -2.47,-1.21 l -2,-18.06 z"
       style="fill:none;stroke:#263238;stroke-width:0.83904326;stroke-linecap:round;stroke-linejoin:round"
       id="path138"
       inkscape:connector-curvature="0" />
    <path
       d="m 135.35,424.23 h 50.28 v 6.7 h -50.28 a 2,2 0 0 1 -2,-2 v -2.73 a 2,2 0 0 1 2,-1.97 z"
       style="fill:#263238;stroke:#263238;stroke-width:0.83904326;stroke-linecap:round;stroke-linejoin:round"
       id="path140"
       inkscape:connector-curvature="0" />
    <path
       d="m 228.89,430.93 h -43.26 v -6.7 l 43.37,2.85 a 1.38,1.38 0 0 1 1.28,1.37 v 1.11 a 1.37,1.37 0 0 1 -1.39,1.37 z"
       style="fill:#a19dff;stroke:#263238;stroke-width:0.83904326;stroke-linecap:round;stroke-linejoin:round"
       id="path142"
       inkscape:connector-curvature="0" />
    <path
       d="m 269.91,294.37 10.88,-3.68 -1.29,1.63"
       style="fill:none;stroke:#263238;stroke-width:0.83904326;stroke-linecap:round;stroke-linejoin:round"
       id="path144"
       inkscape:connector-curvature="0" />
  </g>
  <g
     id="freepik--character-2--inject-1311"
     transform="matrix(-1.191627,0,0,1.1920402,521.84385,-297.7799)"
     style="stroke-width:0.83904326">
    <path
       d="m 339.6,306.89 c 0,0 -12.53,-38.26 19,-40.94 31.53,-2.68 35.22,26.68 38.11,41.4 2.26,11.51 23.78,32.56 7.12,48.27 -17.38,16.41 -59.72,10.93 -62.16,-12.39 -2.44,-23.32 -0.23,-28.1 -2.07,-36.34 z"
       style="fill:#263238;stroke:#263238;stroke-width:0.83904326;stroke-linecap:round;stroke-linejoin:round"
       id="path147"
       inkscape:connector-curvature="0" />
    <path
       d="m 376.36,313 c 0,0 -1.37,17 7.38,31.55 0,0 -11.79,3.85 -24.09,0.19 v 0 a 40.46,40.46 0 0 0 -0.74,-13.48 l -0.42,-1.85 8.94,-7.73 z"
       style="fill:#ffffff;stroke-width:0.83904326"
       id="path149"
       inkscape:connector-curvature="0" />
    <g
       clip-path="url(#freepik--clip-path-5--inject-1311)"
       id="g153"
       style="stroke-width:0.83904326">
      <path
         d="m 354.72,325.77 c 1.63,9.13 3.12,11.12 10.86,9.49 5.73,-1.21 10.62,-9.81 10.9,-16.06 a 84.16,84.16 0 0 1 -0.41,-8.54 l -8.64,11 z"
         style="fill:#263238;stroke-width:0.83904326"
         id="path151"
         inkscape:connector-curvature="0" />
    </g>
    <path
       d="m 376.36,313 c 0,0 -1.37,17 7.38,31.55 0,0 -11.79,3.85 -24.09,0.19 v 0 a 40.46,40.46 0 0 0 -0.74,-13.48 l -0.42,-1.85 8.94,-7.73 z"
       style="fill:none;stroke:#263238;stroke-width:0.83904326;stroke-linecap:round;stroke-linejoin:round"
       id="path155"
       inkscape:connector-curvature="0" />
    <path
       d="m 288.63,410.07 c 0,0 -17.45,-8 -18.43,-1.38 -0.98,6.62 3.29,16.84 19.27,11.81 l 33.53,4.42 c 0,0 5.74,-11.43 -0.39,-17.66 -0.01,0 -29.55,4.59 -33.98,2.81 z"
       style="fill:#ffffff;stroke:#263238;stroke-width:0.83904326;stroke-linecap:round;stroke-linejoin:round"
       id="path157"
       inkscape:connector-curvature="0" />
    <path
       d="m 261.74,417.23 c 0,0 -2.76,0.89 -3.17,2.72 -0.41,1.83 -1.3,4.42 -0.24,4.43 1.06,0.01 2.35,-3.64 2.35,-3.64 l 2.69,-0.7 z"
       style="fill:#ffffff;stroke:#263238;stroke-width:0.83904326;stroke-linecap:round;stroke-linejoin:round"
       id="path159"
       inkscape:connector-curvature="0" />
    <rect
       x="263.17999"
       y="400.73999"
       width="18.24"
       height="25.98"
       transform="rotate(-5.98,272.30102,413.7189)"
       style="fill:#ffffff;stroke:#263238;stroke-width:0.83904326;stroke-linecap:round;stroke-linejoin:round"
       id="rect161" />
    <rect
       x="260.51001"
       y="401.82999"
       width="2.72"
       height="25.98"
       transform="rotate(-5.98,261.87768,414.80623)"
       style="fill:#a19dff;stroke:#263238;stroke-width:0.83904326;stroke-linecap:round;stroke-linejoin:round"
       id="rect163" />
    <path
       d="m 275.14,396.12 a 4,4 0 0 0 -3.52,4.34 2.61,2.61 0 0 0 0.06,0.27 l 0.91,-0.09 1,-0.1 a 2.33,2.33 0 0 1 -0.05,-0.28 2.05,2.05 0 1 1 3.24,1.44 1.8,1.8 0 0 0 1.53,1.18 3.94,3.94 0 0 0 -3.14,-6.76 z"
       style="fill:#ffffff;stroke:#263238;stroke-width:0.83904326;stroke-linecap:round;stroke-linejoin:round"
       id="path165"
       inkscape:connector-curvature="0" />
    <line
       x1="265.29001"
       y1="407.12"
       x2="271.54001"
       y2="406.45999"
       style="fill:none;stroke:#263238;stroke-width:0.83904326;stroke-linecap:round;stroke-linejoin:round"
       id="line167" />
    <line
       x1="265.59"
       y1="409.95999"
       x2="277.72"
       y2="408.69"
       style="fill:none;stroke:#263238;stroke-width:0.83904326;stroke-linecap:round;stroke-linejoin:round"
       id="line169" />
    <line
       x1="265.89001"
       y1="412.81"
       x2="271.95999"
       y2="412.17999"
       style="fill:none;stroke:#263238;stroke-width:0.83904326;stroke-linecap:round;stroke-linejoin:round"
       id="line171" />
    <line
       x1="266.19"
       y1="415.66"
       x2="276.32001"
       y2="414.60001"
       style="fill:none;stroke:#263238;stroke-width:0.83904326;stroke-linecap:round;stroke-linejoin:round"
       id="line173" />
    <line
       x1="266.48999"
       y1="418.51001"
       x2="272.54999"
       y2="417.87"
       style="fill:none;stroke:#263238;stroke-width:0.83904326;stroke-linecap:round;stroke-linejoin:round"
       id="line175" />
    <line
       x1="266.79001"
       y1="421.35001"
       x2="280.09"
       y2="419.95999"
       style="fill:none;stroke:#263238;stroke-width:0.83904326;stroke-linecap:round;stroke-linejoin:round"
       id="line177" />
    <line
       x1="267.07999"
       y1="424.20001"
       x2="273.32999"
       y2="423.54999"
       style="fill:none;stroke:#263238;stroke-width:0.83904326;stroke-linecap:round;stroke-linejoin:round"
       id="line179" />
    <path
       d="m 271.78,396.47 a 4,4 0 0 0 -3.51,4.34 2.74,2.74 0 0 0 0.05,0.28 l 0.92,-0.1 v 0 l 1,-0.1 a 1.27,1.27 0 0 1 -0.06,-0.28 2.06,2.06 0 0 1 4.09,-0.42 2,2 0 0 1 -0.85,1.86 1.8,1.8 0 0 0 1.53,1.18 3.94,3.94 0 0 0 -3.14,-6.76 z"
       style="fill:#ffffff;stroke:#263238;stroke-width:0.83904326;stroke-linecap:round;stroke-linejoin:round"
       id="path181"
       inkscape:connector-curvature="0" />
    <path
       d="m 268.42,396.82 a 4,4 0 0 0 -3.51,4.34 c 0,0.1 0,0.18 0,0.28 l 0.92,-0.1 1,-0.1 a 2.61,2.61 0 0 1 -0.06,-0.27 2.06,2.06 0 1 1 3.25,1.44 1.76,1.76 0 0 0 1.52,1.17 3.87,3.87 0 0 0 1.2,-3.24 4,4 0 0 0 -4.32,-3.52 z"
       style="fill:#ffffff;stroke:#263238;stroke-width:0.83904326;stroke-linecap:round;stroke-linejoin:round"
       id="path183"
       inkscape:connector-curvature="0" />
    <path
       d="m 265.07,397.17 a 4,4 0 0 0 -3.52,4.34 2.3,2.3 0 0 0 0.06,0.28 l 0.91,-0.1 1,-0.1 a 2.56,2.56 0 0 1 -0.05,-0.27 2.05,2.05 0 1 1 3.24,1.44 1.79,1.79 0 0 0 1.53,1.17 3.93,3.93 0 0 0 1.2,-3.24 4,4 0 0 0 -4.37,-3.52 z"
       style="fill:#ffffff;stroke:#263238;stroke-width:0.83904326;stroke-linecap:round;stroke-linejoin:round"
       id="path185"
       inkscape:connector-curvature="0" />
    <path
       d="m 260.08,401.67 a 2.06,2.06 0 1 1 3.24,1.44 1.79,1.79 0 0 0 1.53,1.17 3.94,3.94 0 1 0 -5.45,0 l -0.23,-2.25 1,-0.1 a 1.31,1.31 0 0 1 -0.09,-0.26 z"
       style="fill:#ffffff;stroke:#263238;stroke-width:0.83904326;stroke-linecap:round;stroke-linejoin:round"
       id="path187"
       inkscape:connector-curvature="0" />
    <path
       d="m 257.07,409 a 8.51,8.51 0 0 0 0.59,1.09 4.77,4.77 0 0 0 0.72,4.07 c 0,0 0.08,2.85 1.09,3.3 1.01,0.45 2.62,1 2.59,0.2 -0.03,-0.8 -0.5,-3.19 -2.32,-3.72 0,0 2.09,0.41 1.86,-0.75 -0.23,-1.16 -0.63,-2.84 -1.91,-3.32 l -0.69,-0.3 c 0,0 1.66,0.3 1.52,-0.95 -0.14,-1.25 -0.28,-2.72 -1.23,-3.07 -0.22,-0.08 -0.47,-0.15 -0.73,-0.22 -1.4,-0.33 -2.3,1.87 -1.49,3.67 z"
       style="fill:#ffffff;stroke:#263238;stroke-width:0.83904326;stroke-linecap:round;stroke-linejoin:round"
       id="path189"
       inkscape:connector-curvature="0" />
    <path
       d="m 286.67,409.85 c 0,0 -1.95,-4.32 -5.14,-6.57 -3.19,-2.25 -4.39,-6.63 -5.69,-5.57 -1.3,1.06 -0.12,5.71 1.9,7.3 2.02,1.59 -0.24,5.14 4.73,9.52"
       style="fill:#ffffff;stroke:#263238;stroke-width:0.83904326;stroke-linecap:round;stroke-linejoin:round"
       id="path191"
       inkscape:connector-curvature="0" />
    <path
       d="m 404.14,422.46 q -0.66,4.08 -1.41,8.47 h -68.58 c -0.11,-0.92 0.54,-2.77 1.16,-6 -7.64,2.59 -21,-1.43 -21,-1.43 1.66,-4.37 0.51,-15.47 0.51,-15.47 l 7.78,-1.65 c 0,0 3.23,-33.82 5.69,-43.51 2.61,-10.28 16.89,-21.5 64.92,-18.19 v 0 c 0,0 22.16,-0.42 25.6,14.27 3.24,13.71 -13.75,62.88 -14.67,63.51 z"
       style="fill:#a19dff;stroke-width:0.83904326"
       id="path193"
       inkscape:connector-curvature="0" />
    <g
       clip-path="url(#freepik--clip-path-6--inject-1311)"
       id="g199"
       style="stroke-width:0.83904326">
      <path
         d="m 335.31,424.94 c -5.31,1.8 -13.36,0.41 -17.78,-0.61 1.15,-0.88 1.87,-2.68 2.14,-5 3.6,-0.56 7.2,-6.28 9.57,-32.28 0.56,-6.1 1.76,-9.93 3.3,-12.51 a 36.23,36.23 0 0 0 -0.18,17.88 c 0.86,3.49 3.56,11.89 3.8,15.37 a 64.67,64.67 0 0 1 -0.85,17.15 z"
         style="opacity:0.2;stroke-width:0.83904326"
         id="path195"
         inkscape:connector-curvature="0" />
      <path
         d="m 404.13,422.47 q -0.64,4.08 -1.4,8.46 h -68.58 c 1.23,-3.76 4.25,-21.66 0,-32.54 -0.17,-0.44 14.73,-6.7 24.71,-4.14 42.3,10.85 27.73,-24.11 39.81,-30.47 l -10.42,40.87 -5.69,1.81 c 12.32,0.76 8.76,19.23 8.76,19.23 a 17.88,17.88 0 0 0 12.81,-3.22 z"
         style="opacity:0.2;stroke-width:0.83904326"
         id="path197"
         inkscape:connector-curvature="0" />
    </g>
    <path
       d="m 404.14,422.46 q -0.66,4.08 -1.41,8.47 h -68.58 c -0.11,-0.92 0.54,-2.77 1.16,-6 -7.64,2.59 -21,-1.43 -21,-1.43 1.66,-4.37 0.51,-15.47 0.51,-15.47 l 7.78,-1.65 c 0,0 3.23,-33.82 5.69,-43.51 2.61,-10.28 16.89,-21.5 64.92,-18.19 v 0 c 0,0 22.16,-0.42 25.6,14.27 3.24,13.71 -13.75,62.88 -14.67,63.51 z"
       style="fill:none;stroke:#263238;stroke-width:0.83904326;stroke-linecap:round;stroke-linejoin:round"
       id="path201"
       inkscape:connector-curvature="0" />
    <path
       d="m 316.1,406.13 c 0,0 2.6,1.39 3.45,7.5 0.85,6.11 -0.46,11.37 -3.85,11.29 -3.39,-0.08 -4,-1.41 -3.3,-2.67 0.7,-1.26 2.18,-2.95 1.05,-8.18 -1.42,-6.55 -4.34,-5.95 -4.34,-5.95 0,0 3.89,-3.73 6.99,-1.99 z"
       style="fill:#a19dff;stroke:#263238;stroke-width:0.83904326;stroke-linecap:round;stroke-linejoin:round"
       id="path203"
       inkscape:connector-curvature="0" />
    <path
       d="m 319.67,419.37 c -0.27,2.28 -1,4.08 -2.14,5 a 2.79,2.79 0 0 1 -1.83,0.59 c -3.4,-0.08 -4,-1.41 -3.3,-2.67 0.7,-1.26 2.18,-2.95 1.05,-8.18 -1.42,-6.55 -4.34,-5.95 -4.34,-5.95 0,0 3.9,-3.73 7,-2 0,0 2.6,1.39 3.45,7.5 a 23.3,23.3 0 0 1 0.11,5.71 z"
       style="opacity:0.2;stroke-width:0.83904326"
       id="path205"
       inkscape:connector-curvature="0" />
    <path
       d="m 381.43,332.46 c 0,0 -17.24,5.23 -25.08,2.44 l -1.63,10.47 c 0,0 7.63,6.64 32.07,-1.53 z"
       style="fill:#a19dff;stroke:#263238;stroke-width:0.83904326;stroke-linecap:round;stroke-linejoin:round"
       id="path207"
       inkscape:connector-curvature="0" />
    <path
       d="m 320.17,403.08 c 2.05,6.67 3.88,12 2.07,12.59 -1.81,0.59 -3.3,-4.91 -5.35,-11.59 -2.05,-6.68 -3.88,-12 -2.07,-12.58 1.81,-0.58 3.3,4.9 5.35,11.58 z"
       style="fill:#a19dff;stroke:#263238;stroke-width:0.83904326;stroke-linecap:round;stroke-linejoin:round"
       id="path209"
       inkscape:connector-curvature="0" />
    <path
       d="m 316.63,403.24 3.28,-1 c -0.48,-1.57 -0.93,-3.07 -1.36,-4.41 l -3.27,1 c 0.4,1.35 0.86,2.83 1.35,4.41 z"
       style="fill:#263238;stroke-width:0.83904326"
       id="path211"
       inkscape:connector-curvature="0" />
    <path
       d="m 316.33,394.66 c 0,0 1.53,-3.07 2.94,-0.9 1.41,2.17 1.7,8.76 2.7,8.77"
       style="fill:none;stroke:#263238;stroke-width:0.83904326;stroke-linecap:round;stroke-linejoin:round"
       id="path213"
       inkscape:connector-curvature="0" />
    <path
       d="m 336.67,362 c -1.25,3.83 -3,8 -4.13,12.59 a 36.23,36.23 0 0 0 -0.18,17.88 c 0.86,3.49 3.56,11.89 3.8,15.37 a 64.67,64.67 0 0 1 -0.85,17.11 c -0.62,3.22 -1.27,5.07 -1.16,6"
       style="fill:none;stroke:#263238;stroke-width:0.83904326;stroke-linecap:round;stroke-linejoin:round"
       id="path215"
       inkscape:connector-curvature="0" />
    <path
       d="m 379.12,407.6 c 0,0 -27.9,3.81 -37.31,4 -1.44,0 -5.76,-0.5 -5.76,-0.5 l -6.69,-4.47 c 0,0 -5.15,-0.76 -7.68,-0.19 l -2.88,3.77 c 0,0 -3.59,1.16 -1.54,3.88 a 3.48,3.48 0 0 0 0.95,3.67 c 0,0 0.16,2.37 1.74,3.32 0,0 0.31,2.21 2.05,2.84 1.74,0.63 12.63,-1.11 15.95,-2.05 3.32,-0.94 35.52,4.1 48.15,3.79 0,0.02 10.82,-12.66 -6.98,-18.06 z"
       style="fill:#ffffff;stroke:#263238;stroke-width:0.83904326;stroke-linecap:round;stroke-linejoin:round"
       id="path217"
       inkscape:connector-curvature="0" />
    <path
       d="m 379.55,302 c 0,0 -7.36,2.87 -11.72,-5.07 -1.89,-3.44 -5.71,-10.61 -5.71,-10.61 -1.09,2.81 0.25,7.09 0.25,7.09 -2.5,-1.09 -7.32,-1.35 -7.32,-1.35 -1.71,-2.86 -2.21,-9.36 -2.21,-9.36 -2.37,4 -1.69,9.64 -1.69,9.64 a 19,19 0 0 0 -10.49,4.44 c 0.63,2.55 0.85,6.53 0.64,14.8 -0.27,10.79 4.92,13.75 10,17.79 5.08,4.04 18.91,6.12 23.69,-15 0,0 10,-3.73 5.12,-11.56 z"
       style="fill:#ffffff;stroke:#263238;stroke-width:0.83904326;stroke-linecap:round;stroke-linejoin:round"
       id="path219"
       inkscape:connector-curvature="0" />
    <path
       d="M 371.35,289 A 24.41,24.41 0 0 0 387,302.27"
       style="fill:none;stroke:#bfbfbf;stroke-width:0.83904326;stroke-miterlimit:10"
       id="path221"
       inkscape:connector-curvature="0" />
    <path
       d="m 368.72,281 a 26.08,26.08 0 0 0 1,3.87"
       style="fill:none;stroke:#bfbfbf;stroke-width:0.83904326;stroke-miterlimit:10"
       id="path223"
       inkscape:connector-curvature="0" />
    <path
       d="m 373.72,281.49 c 0,0 5.68,10.84 14.56,11.1"
       style="fill:none;stroke:#bfbfbf;stroke-width:0.83904326;stroke-miterlimit:10"
       id="path225"
       inkscape:connector-curvature="0" />
    <path
       d="m 391.13,309.06 c 0,0 14.45,23.4 14.45,37"
       style="fill:none;stroke:#bfbfbf;stroke-width:0.83904326;stroke-miterlimit:10"
       id="path227"
       inkscape:connector-curvature="0" />
    <path
       d="m 387.31,315.3 c 0,0 3.57,13.05 9.32,19.6"
       style="fill:none;stroke:#bfbfbf;stroke-width:0.83904326;stroke-miterlimit:10"
       id="path229"
       inkscape:connector-curvature="0" />
    <path
       d="m 341.9,281.37 a 38.55,38.55 0 0 0 -0.85,5.85"
       style="fill:none;stroke:#bfbfbf;stroke-width:0.83904326;stroke-miterlimit:10"
       id="path231"
       inkscape:connector-curvature="0" />
    <path
       d="m 353.73,269.11 c 0,0 -6.73,1.26 -11.12,9.19"
       style="fill:none;stroke:#bfbfbf;stroke-width:0.83904326;stroke-miterlimit:10"
       id="path233"
       inkscape:connector-curvature="0" />
    <path
       d="m 345.21,329.7 c 0,0 -0.22,10.5 5.14,16.4"
       style="fill:none;stroke:#bfbfbf;stroke-width:0.83904326;stroke-miterlimit:10"
       id="path235"
       inkscape:connector-curvature="0" />
    <path
       d="m 354.72,297.57 c 7.29,-1.43 10.48,2.28 10.48,2.28"
       style="fill:none;stroke:#263238;stroke-width:0.83904326;stroke-linecap:round;stroke-linejoin:round"
       id="path237"
       inkscape:connector-curvature="0" />
    <path
       d="m 342.58,300.64 a 8.32,8.32 0 0 1 6.17,-2.46"
       style="fill:none;stroke:#263238;stroke-width:0.83904326;stroke-linecap:round;stroke-linejoin:round"
       id="path239"
       inkscape:connector-curvature="0" />
    <path
       d="m 359.47,322 c 2.25,-1.28 3.5,-4.62 3.5,-4.62 l -0.47,0.26 a 27.2,27.2 0 0 1 -9.43,3 v 0 a 5.4,5.4 0 0 0 6.4,1.36 z"
       style="fill:none;stroke:#263238;stroke-width:0.83904326;stroke-linecap:round;stroke-linejoin:round"
       id="path241"
       inkscape:connector-curvature="0" />
    <path
       d="m 350.55,315.06 c -0.95,-0.12 -3.66,-1.4 -3.89,-3.24 -0.07,-0.55 0.33,-1.05 0.92,-1.49 a 8.38,8.38 0 0 0 3.55,-7.34 c 0,-0.2 0,-0.32 0,-0.32"
       style="fill:none;stroke:#263238;stroke-width:0.83904326;stroke-linecap:round;stroke-linejoin:round"
       id="path243"
       inkscape:connector-curvature="0" />
    <path
       d="m 359.87,300.5 c 0.69,-0.09 1.4,1.06 1.58,2.55 0.18,1.49 -0.22,2.76 -0.92,2.85 -0.7,0.09 -1.39,-1.06 -1.58,-2.55 -0.19,-1.49 0.23,-2.77 0.92,-2.85 z"
       style="fill:#263238;stroke-width:0.83904326"
       id="path245"
       inkscape:connector-curvature="0" />
    <path
       d="m 347.85,304.81 c 0.18,1.46 -0.22,2.71 -0.9,2.79 -0.68,0.08 -1.37,-1 -1.55,-2.49 -0.18,-1.49 0.22,-2.72 0.9,-2.8 0.68,-0.08 1.37,1.03 1.55,2.5 z"
       style="fill:#263238;stroke-width:0.83904326"
       id="path247"
       inkscape:connector-curvature="0" />
    <path
       d="m 370.23,301.75 c 0,0 -0.93,-2.64 0.13,-4"
       style="fill:none;stroke:#263238;stroke-width:0.83904326;stroke-linecap:round;stroke-linejoin:round"
       id="path249"
       inkscape:connector-curvature="0" />
    <path
       d="m 404.13,422.47 a 17.86,17.86 0 0 1 -12.82,3.22 c 0,0 3.56,-18.47 -8.76,-19.23 l 5.69,-1.81 10.42,-40.87"
       style="fill:none;stroke:#263238;stroke-width:0.83904326;stroke-linecap:round;stroke-linejoin:round"
       id="path251"
       inkscape:connector-curvature="0" />
    <path
       d="m 391.31,404.65 c 0,0 6.6,1.74 8.45,7.42"
       style="fill:none;stroke:#263238;stroke-width:0.83904326;stroke-linecap:round;stroke-linejoin:round"
       id="path253"
       inkscape:connector-curvature="0" />
    <path
       d="m 364.38,338.88 a 44.8,44.8 0 0 0 18.2,-4"
       style="fill:none;stroke:#263238;stroke-width:0.83904326;stroke-linecap:round;stroke-linejoin:round"
       id="path255"
       inkscape:connector-curvature="0" />
    <path
       d="m 355.88,337.9 a 27.27,27.27 0 0 0 4.3,0.76"
       style="fill:none;stroke:#263238;stroke-width:0.83904326;stroke-linecap:round;stroke-linejoin:round"
       id="path257"
       inkscape:connector-curvature="0" />
    <path
       d="m 384,349.62 q 2.67,-0.94 5.6,-2.21"
       style="fill:none;stroke:#263238;stroke-width:0.83904326;stroke-linecap:round;stroke-linejoin:round"
       id="path259"
       inkscape:connector-curvature="0" />
    <path
       d="m 353.11,349.77 c 0,0 6.71,6.37 24.46,1.82"
       style="fill:none;stroke:#263238;stroke-width:0.83904326;stroke-linecap:round;stroke-linejoin:round"
       id="path261"
       inkscape:connector-curvature="0" />
    <path
       d="m 358.91,381.43 c 0,0 1,15.37 12.44,21.1"
       style="fill:none;stroke:#263238;stroke-width:0.83904326;stroke-linecap:round;stroke-linejoin:round"
       id="path263"
       inkscape:connector-curvature="0" />
    <path
       d="m 378.84,407.84 c 0,0 2.24,-4.94 8.94,-2.5 0,0 6.33,2.18 8.23,8.69 1.9,6.51 -0.48,12.32 -5.1,12.56 -4.62,0.24 -5.46,-0.12 -4.68,-1.54 a 11.62,11.62 0 0 0 0.36,-10.12 c -2.87,-6.87 -7.75,-7.09 -7.75,-7.09 z"
       style="fill:#a19dff;stroke-width:0.83904326"
       id="path265"
       inkscape:connector-curvature="0" />
    <g
       clip-path="url(#freepik--clip-path-7--inject-1311)"
       id="g271"
       style="stroke-width:0.83904326">
      <g
         style="opacity:0.2;stroke-width:0.83904326"
         id="g269">
        <path
           d="m 378.84,407.84 c 0,0 2.24,-4.94 8.94,-2.5 0,0 6.33,2.18 8.23,8.69 1.9,6.51 -0.48,12.32 -5.1,12.56 -4.62,0.24 -5.46,-0.12 -4.68,-1.54 a 11.62,11.62 0 0 0 0.36,-10.12 c -2.87,-6.87 -7.75,-7.09 -7.75,-7.09 z"
           id="path267"
           inkscape:connector-curvature="0"
           style="stroke-width:0.83904326" />
      </g>
    </g>
    <path
       d="m 378.84,407.84 c 0,0 2.24,-4.94 8.94,-2.5 0,0 6.33,2.18 8.23,8.69 1.9,6.51 -0.48,12.32 -5.1,12.56 -4.62,0.24 -5.46,-0.12 -4.68,-1.54 a 11.62,11.62 0 0 0 0.36,-10.12 c -2.87,-6.87 -7.75,-7.09 -7.75,-7.09 z"
       style="fill:none;stroke:#263238;stroke-width:0.83904326;stroke-linecap:round;stroke-linejoin:round"
       id="path273"
       inkscape:connector-curvature="0" />
  </g>
  <g
     id="freepik--Desk--inject-1311"
     transform="matrix(-1.191627,0,0,1.1920402,521.84385,-297.7799)"
     style="stroke-width:0.83904326">
    <path
       d="m 72.44,387.51 c 0,0 -3.44,-29.41 -33.85,-17.51 0,0 25.88,-0.19 30.26,22 l 4,-0.43 z"
       style="fill:#a19dff;stroke-width:0.83904326"
       id="path276"
       inkscape:connector-curvature="0" />
    <path
       d="m 72.44,387.51 c 0,0 -3.44,-29.41 -33.85,-17.51 0,0 25.88,-0.19 30.26,22 l 4,-0.43 z"
       style="opacity:0.1;stroke-width:0.83904326"
       id="path278"
       inkscape:connector-curvature="0" />
    <path
       d="m 72.86,387 c 0,0 -2.63,-31.36 -8.36,-55.73 0,0 17.5,18.51 13.5,53.36 z"
       style="fill:#a19dff;stroke-width:0.83904326"
       id="path280"
       inkscape:connector-curvature="0" />
    <path
       d="m 72.86,387 c 0,0 -2.63,-31.36 -8.36,-55.73 0,0 17.5,18.51 13.5,53.36 z"
       style="opacity:0.1;stroke-width:0.83904326"
       id="path282"
       inkscape:connector-curvature="0" />
    <path
       d="m 71.16,407.78 c 0,0 -5,-43.2 -21.83,-58 0,0 30,7.47 25.58,53.35 z"
       style="fill:#a19dff;stroke-width:0.83904326"
       id="path284"
       inkscape:connector-curvature="0" />
    <path
       d="m 76.44,406 c 0,0 7.35,-42.87 24.91,-56.78 0,0 -30.38,5.84 -28.4,51.9 z"
       style="fill:#a19dff;stroke-width:0.83904326"
       id="path286"
       inkscape:connector-curvature="0" />
    <path
       d="m 91.85,391.94 h -35.5 v 6.17 h 1.18 v 21.77 a 11.05,11.05 0 0 0 11,11.05 h 11 a 11.06,11.06 0 0 0 11.06,-11.05 v -21.77 h 1.18 z"
       style="fill:#ffffff;stroke:#263238;stroke-width:0.83904326;stroke-miterlimit:10"
       id="path288"
       inkscape:connector-curvature="0" />
    <path
       d="m 80.85,397.82 h 4.72"
       style="fill:#ffffff;stroke:#263238;stroke-width:0.83904326;stroke-miterlimit:10"
       id="path290"
       inkscape:connector-curvature="0" />
    <path
       d="M 62.34,397.82 H 76"
       style="fill:#ffffff;stroke:#263238;stroke-width:0.83904326;stroke-miterlimit:10"
       id="path292"
       inkscape:connector-curvature="0" />
    <path
       d="m 212,403.77 -9.1,-74.1 a 5,5 0 0 0 -4.79,-4.26 H 187.69 L 199.75,408 h 8.53 a 3.69,3.69 0 0 0 3.72,-4.23 z"
       style="fill:#a19dff;stroke:#263238;stroke-width:0.83904326;stroke-linecap:round;stroke-linejoin:round"
       id="path294"
       inkscape:connector-curvature="0" />
    <path
       d="M 206,408 H 101.16 a 5,5 0 0 1 -4.78,-4.26 l -9.1,-74.1 A 3.68,3.68 0 0 1 91,325.41 h 104.88 a 5,5 0 0 1 4.78,4.26 l 9.1,74.1 A 3.69,3.69 0 0 1 206,408 Z"
       style="fill:#263238;stroke-width:0.83904326"
       id="path296"
       inkscape:connector-curvature="0" />
    <g
       clip-path="url(#freepik--clip-path-8--inject-1311)"
       id="g300"
       style="stroke-width:0.83904326">
      <path
         d="M 206,408 H 101.16 a 5,5 0 0 1 -4.78,-4.26 l -9.1,-74.1 A 3.68,3.68 0 0 1 91,325.41 h 104.88 a 5,5 0 0 1 4.78,4.26 l 9.1,74.1 A 3.69,3.69 0 0 1 206,408 Z"
         style="opacity:0.1;fill:#ffffff;stroke-width:0.83904326"
         id="path298"
         inkscape:connector-curvature="0" />
    </g>
    <path
       d="M 206,408 H 101.16 a 5,5 0 0 1 -4.78,-4.26 l -9.1,-74.1 A 3.68,3.68 0 0 1 91,325.41 h 104.88 a 5,5 0 0 1 4.78,4.26 l 9.1,74.1 A 3.69,3.69 0 0 1 206,408 Z"
       style="fill:none;stroke:#263238;stroke-width:0.83904326;stroke-linecap:round;stroke-linejoin:round"
       id="path302"
       inkscape:connector-curvature="0" />
    <path
       d="m 157.13,424.87 4.19,-47.73 a 2,2 0 0 0 -2,-2.13 h -26.43 a 2,2 0 0 0 -2,1.79 l -4.56,52 a 2,2 0 0 0 2,2.13 h 52.44 a 2,2 0 0 0 2,-2 v 0 a 2,2 0 0 0 -2,-2 h -21.69 a 2,2 0 0 1 -1.95,-2.06 z"
       style="fill:#263238;stroke:#263238;stroke-width:0.83904326;stroke-linecap:round;stroke-linejoin:round"
       id="path304"
       inkscape:connector-curvature="0" />
    <path
       d="m 182.73,429 a 2,2 0 0 0 -2,-2 h -21.65 a 2,2 0 0 1 -2,-2.14 l 4.19,-47.73 a 2,2 0 1 0 -3.9,-0.34 l -4.56,52 a 2,2 0 0 0 1.95,2.13 h 26 a 2,2 0 0 0 1.97,-1.92 z"
       style="fill:#a19dff;stroke:#263238;stroke-width:0.83904326;stroke-linecap:round;stroke-linejoin:round"
       id="path306"
       inkscape:connector-curvature="0" />
    <line
       x1="62.5"
       y1="430.92999"
       x2="437.5"
       y2="430.92999"
       style="fill:none;stroke:#263238;stroke-width:0.83904326;stroke-linecap:round;stroke-linejoin:round"
       id="line308" />
  </g>
</svg>
